<?xml version="1.0" encoding="UTF-8"?>
<svg width="30px" height="15px" viewBox="0 0 30 15" version="1.1" xmlns="http://www.w3.org/2000/svg" xmlns:xlink="http://www.w3.org/1999/xlink">
    <title>pro_icon</title>
    <g id="页面-1" stroke="none" stroke-width="1" fill="none" fill-rule="evenodd">
        <g id="pro_icon" transform="translate(0.7174, 0.7739)" fill="#6E1E1E" fill-rule="nonzero">
            <path d="M-1.77635684e-15,-1.77635684e-15 L5.6,-1.77635684e-15 C8.4,-1.77635684e-15 10.3,1.9 10.3,4.7 C10.3,7.5 8.3,9.4 5.4,9.4 L2.9,9.4 L2.9,13.7 L-1.77635684e-15,13.7 L-1.77635684e-15,-1.77635684e-15 Z M2.9,2.2 L2.9,7.1 L4.8,7.1 C6.4,7.1 7.4,6.2 7.4,4.7 C7.4,3.1 6.5,2.3 4.8,2.3 L2.9,2.3 L2.9,2.2 L2.9,2.2 Z M11.8,13.7 L14.5,13.7 L14.5,8 C14.5,6.6 15.3,5.7 16.7,5.7 C17.1,5.7 17.5,5.8 17.7,5.9 L17.7,3.5 C17.5,3.4 17.2,3.4 16.9,3.4 C15.7,3.4 14.8,4.1 14.5,5.4 L14.4,5.4 L14.4,3.5 L11.7,3.5 L11.7,13.7 L11.8,13.7 Z M23.5,13.8 C20.4,13.8 18.5,11.8 18.5,8.5 C18.5,5.2 20.5,3.2 23.5,3.2 C26.5,3.2 28.5,5.2 28.5,8.5 C28.5,11.9 26.6,13.8 23.5,13.8 L23.5,13.8 Z M23.5,11.7 C24.9,11.7 25.7,10.6 25.7,8.5 C25.7,6.5 24.9,5.3 23.5,5.3 C22.1,5.3 21.3,6.5 21.3,8.5 C21.3,10.6 22.1,11.7 23.5,11.7 Z" id="Ant-Design-Pro"></path>
        </g>
    </g>
</svg>